<?xml version="1.0" encoding="utf-8"?>
<!-- Generator: Adobe Illustrator 22.1.0, SVG Export Plug-In . SVG Version: 6.00 Build 0)  -->
<svg version="1.1" id="레이어_1" focusable="false"
	 xmlns="http://www.w3.org/2000/svg" xmlns:xlink="http://www.w3.org/1999/xlink" x="0px" y="0px" viewBox="0 0 640 512"
	 style="enable-background:new 0 0 640 512;" xml:space="preserve">
<style type="text/css">
	.st0{fill:#FFFFFF;}
</style>
<path class="st0" d="M258,273L63.6,467.3c-9.4,9.4-24.6,9.4-33.9,0L7,444.6c-9.4-9.4-9.4-24.5,0-33.9L161,256L7,101.3
	c-9.3-9.4-9.3-24.5,0-33.9l22.7-22.7c9.4-9.4,24.6-9.4,33.9,0L258,239C267.4,248.4,267.4,263.6,258,273z M640,456v-32
	c0-13.3-10.7-24-24-24H312c-13.3,0-24,10.7-24,24v32c0,13.3,10.7,24,24,24h304C629.3,480,640,469.3,640,456z"/>
</svg>
